<svg width="13" height="16" viewBox="0 0 13 16" fill="none" xmlns="http://www.w3.org/2000/svg">
<path d="M11 3C11.3978 3 11.7793 2.84196 12.0606 2.56066C12.3419 2.27936 12.5 1.89782 12.5 1.5C12.5 1.10218 12.3419 0.720644 12.0606 0.43934C11.7793 0.158035 11.3978 0 11 0C10.6022 0 10.2206 0.158035 9.93932 0.43934C9.65801 0.720644 9.49998 1.10218 9.49998 1.5C9.49998 1.89782 9.65801 2.27936 9.93932 2.56066C10.2206 2.84196 10.6022 3 11 3ZM10.337 5.146C10.4493 4.9776 10.5264 4.78821 10.5636 4.58922C10.6008 4.39024 10.5973 4.18579 10.5534 3.98818C10.5095 3.79057 10.4261 3.60389 10.3081 3.43939C10.1901 3.27489 10.0401 3.13597 9.86698 3.031L7.36698 1.523C7.11087 1.36864 6.81446 1.29436 6.51583 1.30968C6.21719 1.32501 5.92995 1.42924 5.69098 1.609L3.36198 3.359C3.18962 3.50177 3.07923 3.70572 3.05396 3.9281C3.02868 4.15048 3.09047 4.374 3.22639 4.55181C3.3623 4.72963 3.56178 4.84792 3.78299 4.88188C4.00421 4.91584 4.22998 4.86285 4.41298 4.734L6.36098 3.37L7.28298 4.08L5.24498 6.525C4.5957 6.45587 3.93915 6.52191 3.31665 6.71897C2.69415 6.91602 2.11919 7.23983 1.62798 7.67L2.69198 8.735C3.31566 8.2233 4.10735 7.96185 4.9131 8.00149C5.71886 8.04113 6.48107 8.37903 7.05151 8.94947C7.62195 9.51991 7.95984 10.2821 7.99948 11.0879C8.03912 11.8936 7.77767 12.6853 7.26598 13.309L8.32998 14.372C8.80318 13.832 9.14725 13.1914 9.3361 12.4987C9.52496 11.806 9.55364 11.0794 9.41998 10.374L10.463 10.082L10.276 13.073C10.2675 13.1884 10.2822 13.3044 10.319 13.4141C10.3558 13.5238 10.4142 13.6251 10.4905 13.7121C10.5669 13.799 10.6599 13.8699 10.7639 13.9206C10.868 13.9712 10.9811 14.0007 11.0967 14.0072C11.2122 14.0137 11.3279 13.9971 11.437 13.9585C11.5461 13.9198 11.6464 13.8598 11.732 13.782C11.8177 13.7041 11.887 13.61 11.9359 13.5051C11.9849 13.4002 12.0124 13.2866 12.017 13.171L12.223 9.05C12.2298 8.91462 12.2089 8.77927 12.1618 8.65218C12.1146 8.52509 12.0421 8.40891 11.9487 8.31071C11.8553 8.2125 11.7428 8.13432 11.6183 8.0809C11.4937 8.02749 11.3595 7.99997 11.224 8H8.43398L10.337 5.146ZM2.02298 9.48C1.6172 10.1045 1.43821 10.8494 1.51597 11.5901C1.59372 12.3308 1.92349 13.0223 2.45011 13.5489C2.97672 14.0755 3.66823 14.4053 4.4089 14.483C5.14958 14.5608 5.89449 14.3818 6.51898 13.976L7.59598 15.053C6.68126 15.739 5.54978 16.0721 4.40926 15.991C3.26873 15.91 2.19572 15.4203 1.38722 14.6118C0.578717 13.8033 0.0889823 12.7302 0.00792797 11.5897C-0.0731263 10.4492 0.25994 9.31772 0.945978 8.403L2.02298 9.48Z" fill="white"/>
</svg>
