<svg width="16" height="16" viewBox="0 0 16 16" fill="none" xmlns="http://www.w3.org/2000/svg">
<g clip-path="url(#clip0_8_11)">
<path d="M9.75195 6.19298C10.351 6.79298 11.482 6.62998 12.28 5.83098C13.078 5.03198 13.24 3.89898 12.642 3.29998C12.043 2.69998 10.912 2.86198 10.114 3.66098C9.31595 4.46098 9.15395 5.59398 9.75195 6.19298Z" fill="white"/>
<path d="M15.811 3.31194C15.448 4.84594 14.477 6.93794 12.171 9.52994L11.931 11.9379C11.867 12.5149 11.6089 13.053 11.199 13.4639L8.81696 15.8499C8.74133 15.9264 8.64345 15.977 8.53732 15.9945C8.4312 16.012 8.32226 15.9955 8.22608 15.9474C8.1299 15.8992 8.0514 15.8219 8.00181 15.7264C7.95222 15.631 7.93407 15.5223 7.94996 15.4159L8.21996 13.5169C8.25996 13.2369 8.20696 12.9239 8.08896 12.5609C8.01455 12.3388 7.93148 12.1196 7.83996 11.9039L7.75796 11.7019C6.94296 11.5049 6.17996 11.0399 5.56696 10.4249C4.95296 9.80995 4.48796 9.04594 4.29196 8.22994L4.08896 8.14694C3.87359 8.05666 3.65513 7.97394 3.43396 7.89894C3.07096 7.77994 2.75896 7.72694 2.47896 7.76694L0.582964 8.03694C0.476671 8.05257 0.368158 8.03423 0.272903 7.98454C0.177649 7.93485 0.100519 7.85635 0.0525167 7.76024C0.00451437 7.66412 -0.0119087 7.5553 0.0055903 7.4493C0.0230893 7.3433 0.0736165 7.24553 0.149964 7.16994L2.53196 4.78394C2.94196 4.37394 3.47896 4.11395 4.05596 4.04994H4.06196L6.46196 3.81194C9.00496 1.54994 11.087 0.581945 12.623 0.207945C13.513 -0.00905545 14.213 -0.0240555 14.703 0.0199445C14.947 0.0429445 15.138 0.0799445 15.273 0.112945C15.3396 0.130278 15.393 0.145278 15.433 0.157945C15.617 0.217945 15.712 0.287945 15.784 0.452945L15.813 0.525945C15.8906 0.760074 15.9432 1.00175 15.97 1.24694C16.025 1.73194 16.021 2.42494 15.811 3.31194ZM10.983 10.7869L11.023 10.7469L10.916 11.8279C10.8765 12.1732 10.7214 12.495 10.476 12.7409L9.17796 14.0409L9.23196 13.6609C9.30396 13.1549 9.19796 12.6679 9.05996 12.2429C9.0093 12.0915 8.95461 11.9415 8.89596 11.7929C9.63396 11.7279 10.358 11.4129 10.983 10.7869ZM5.20496 4.99994C4.57996 5.62594 4.26496 6.35094 4.20096 7.08994C4.05245 7.0313 3.90239 6.97661 3.75096 6.92594C3.32696 6.78794 2.84096 6.68194 2.33496 6.75394L1.95496 6.80794L3.25496 5.50794C3.49996 5.26194 3.82096 5.10694 4.16496 5.06794L5.24496 4.96094L5.20496 4.99994ZM14.611 1.03894C14.231 1.00494 13.644 1.01194 12.865 1.20194C11.307 1.58194 8.94796 2.69794 5.92796 5.72294C5.30796 6.34294 5.12896 7.06294 5.24096 7.77394C5.34796 8.44994 5.72396 9.13594 6.28896 9.70194C6.85296 10.2669 7.53896 10.6429 8.21296 10.7509C8.92296 10.8629 9.64196 10.6839 10.261 10.0629C13.34 6.97994 14.453 4.61894 14.817 3.07594C15 2.30494 14.997 1.73094 14.955 1.36294C14.9445 1.26795 14.9295 1.17351 14.91 1.07994C14.8107 1.06124 14.7106 1.04755 14.61 1.03894H14.611Z" fill="white"/>
<path d="M7.00899 12.139C6.34379 11.7805 5.73577 11.3248 5.20499 10.787C4.63604 10.223 4.15982 9.57267 3.79399 8.85999C2.69199 9.85199 1.82899 13.914 1.95499 14.04C2.07999 14.166 5.89099 13.144 7.00899 12.138V12.139Z" fill="white"/>
</g>
<defs>
<clipPath id="clip0_8_11">
<rect width="16" height="16" fill="white"/>
</clipPath>
</defs>
</svg>
