<svg width="637" height="638" viewBox="0 0 637 638" fill="none" xmlns="http://www.w3.org/2000/svg">
<path d="M306.133 1.33338C291.6 5.06672 276 17.6001 269.2 30.9334C258 53.2001 262.133 78.1334 280 95.2001C289.333 104.133 298.533 108.8 310.533 110.933C354 118.4 388.267 71.2001 368.533 30.9334C360.267 14.1334 340.933 1.46672 321.733 0.533385C316 0.266718 309.067 0.666718 306.133 1.33338Z" fill="#023E8A"/>
<path d="M226.4 116.8C211.333 120.4 194.8 130.933 185.333 142.8C182.4 146.533 180 150 180 150.667C180 151.2 189.467 152 201.067 152.533C220.933 153.467 222.533 153.333 229.333 150.533C234.533 148.4 239.6 147.6 246.667 147.467C255.467 147.333 257.867 147.867 265.333 151.6C274.533 156.133 279.733 160.8 303.2 185.067C311.2 193.2 318.133 200 318.533 200C318.933 200 328.933 190.4 340.667 178.533C352.4 166.8 364.267 155.6 367.067 153.867C389.2 139.6 421.867 149.733 432.933 174.4C437.867 185.467 438.533 199.333 434.667 210C432 217.2 429.333 220.4 407.867 241.733L384.133 265.6L391.467 280.4C395.467 288.667 399.333 295.333 400 295.333C402.533 295.333 453.2 244.133 457.867 237.067C472.8 213.467 474.4 183.2 461.867 157.6C452.4 138.533 432.133 122.133 411.2 116.667C400.8 114 378.667 114 369.2 116.8C355.467 120.8 344 128 332.533 139.6C325.733 146.533 320.533 150.667 318.8 150.667C317.067 150.667 311.867 146.533 304.933 139.6C293.2 128 281.6 120.8 268.133 116.8C259.067 114.133 237.067 114.133 226.4 116.8Z" fill="#023E8A"/>
<path d="M179.067 168C154.933 172.4 133.067 189.467 122.133 212.533C116.533 224.133 114.667 232.933 114.667 246.4C114.667 268.4 121.733 284.933 139.467 304.133C145.6 310.8 150.667 317.2 150.667 318.267C150.667 319.333 146.267 325.067 140.8 330.8C129.6 342.667 122.533 353.467 118.533 364.933C114.933 374.8 113.733 395.467 115.867 406.933C118 417.467 124.8 432 132.133 441.067C137.467 447.867 149.2 458 150.267 456.8C150.667 456.533 151.733 447.6 152.8 436.933L154.667 417.733L151.2 408.533C146.133 395.6 146.133 383.6 151.067 372.667C154.133 366.267 159.067 360.4 177.733 341.733L200.533 318.667L176.4 294.4C155.6 273.2 152.133 269.067 150.267 263.333C146.8 252.267 146.4 248.533 148 239.733C151.2 222.4 159.467 211.2 174.533 204.133C180.8 201.2 183.867 200.667 194 200.667C212 200.667 216.267 203.2 243.867 230.133C256.267 242.133 267.067 252 268 252C269.733 252 291.333 241.067 295.2 238.267C297.2 236.8 294.533 233.733 269.733 209.2C240.4 180.267 233.333 175.2 216 170.133C206.933 167.467 188.267 166.4 179.067 168Z" fill="#023E8A"/>
<path d="M402.667 178.133C399.333 180 388.933 189.2 379.333 198.533C369.867 207.867 356.667 220.267 350.267 226.267L338.533 237.2L354.133 244.533C362.667 248.667 370.267 252 370.933 252C372.133 252 416.933 208.933 420 204.667C423.067 200.533 422.533 187.2 419.2 180.667C415.733 173.867 411.2 173.2 402.667 178.133Z" fill="#023E8A"/>
<path d="M484.933 199.6C484.133 219.467 484.4 222 488.667 236.533C490.267 242 490.8 246.8 490.267 251.733C488.933 264.8 484.667 270.933 460 295.2L437.467 317.467L445.467 326.4C450 331.333 459.867 341.467 467.467 348.933C484.533 365.733 488.267 372.267 489.067 387.467C489.733 400 487.6 408 481.067 417.867C470.4 434.133 446.133 441.6 427.067 434.533C420.267 432 416.667 428.933 395.333 407.733L371.333 383.733L355.333 391.733L339.333 399.867L366.667 426.933C395.333 455.467 402.8 461.2 418.667 466.8C431.6 471.333 453.867 471.067 468.8 466.267C502.133 455.333 522.667 425.867 522.667 389.2C522.667 364.933 515.867 350.667 493.6 327.733L484.933 318.8L495.6 307.467C514.133 288 521.2 273.333 522.267 252.667C523.333 232.267 516.667 210.667 504.267 194.267C500 188.667 489.333 180 486.667 180C486.133 180 485.333 188.8 484.933 199.6Z" fill="#023E8A"/>
<path d="M185.467 216.133C166.933 221.733 170.267 228.8 210.133 270L236.933 297.6L241.733 289.067C244.267 284.4 247.867 277.6 249.733 273.867L253.2 267.067L230 242.667C217.2 229.2 206 217.733 204.933 217.2C201.733 215.333 190.133 214.8 185.467 216.133Z" fill="#023E8A"/>
<path d="M42.8 264.667C8.66667 272.133 -9.2 310.4 5.86667 343.467C15.6 364.667 40.8 377.6 64.8 373.6C88.9333 369.6 106.8 351.467 110.8 326.933C115.6 297.867 95.3333 269.467 66.1333 264.133C56.2667 262.267 53.6 262.4 42.8 264.667Z" fill="#023E8A"/>
<path d="M570.267 264C548.533 267.733 530.667 286.933 526.533 311.067C522.667 334.533 535.067 357.467 558 368.8C597.6 388.267 642.933 354.533 636.133 310.533C632.4 286.933 616.267 269.467 593.867 264.667C583.733 262.533 579.867 262.4 570.267 264Z" fill="#023E8A"/>
<path d="M392.8 354.133C388.667 362.667 385.333 370 385.333 370.4C385.333 371.2 393.2 379.6 417.067 404.533L433.467 421.733L443.733 420.933C455.333 420.267 464 417.2 464 414C464 408.533 456 397.733 438.4 379.333C427.867 368.267 415.067 354.667 409.867 348.933L400.267 338.533L392.8 354.133Z" fill="#023E8A"/>
<path d="M209.867 367.733C181.733 395.6 176 402.933 170.533 418.667C166.667 430 166.267 452.533 169.867 464.667C178.267 492.8 200.4 514.4 227.467 520.8C234.133 522.4 240.533 522.8 250.667 522.267C273.467 521.2 284.667 515.867 308 494.933L318.8 485.2L331.467 497.2C350.8 515.467 367.467 522.667 390.667 522.667C404.8 522.667 413.333 520.8 426 514.667C437.733 508.933 447.733 500.933 454.267 491.733L458.533 485.733L436.133 484.8C415.067 483.867 413.333 484 406.533 486.8C395.333 491.333 382.8 490.933 371.467 485.6C363.733 482 359.6 478.4 341.067 459.467L319.6 437.467L296.533 459.733C269.067 486.133 263.067 489.867 248.667 489.867C219.733 490 198.8 468.667 200.267 440.667C200.933 425.467 204.8 419.467 230.133 393.467C242.133 381.067 252 370.267 252 369.333C252 367.2 238.667 341.333 237.6 341.333C237.067 341.333 224.667 353.2 209.867 367.733Z" fill="#023E8A"/>
<path d="M262.267 386.933C261.2 388.667 250.667 399.733 238.8 411.6C222.533 427.733 216.8 434.4 215.867 438C214.133 444.267 216.533 456.267 220.4 460.8C224.4 465.467 228.533 464.267 240.533 454.667C250.533 446.8 297.333 401.733 297.333 400C297.333 399.2 266.8 384 265.067 384C264.667 384 263.467 385.333 262.267 386.933Z" fill="#023E8A"/>
<path d="M306.667 527.067C278.533 533.6 258.8 562.533 263.733 590.4C269.467 623.2 300.667 643.6 332.4 635.333C343.467 632.533 350.133 628.667 358 620.8C385.067 593.733 376.8 547.6 342 531.2C330.933 525.867 318.133 524.4 306.667 527.067Z" fill="#023E8A"/>
</svg>
